<svg width="150" height="150" viewBox="0 0 150 150" fill="none" xmlns="http://www.w3.org/2000/svg">
<g clip-path="url(#clip0_52_113)">
<path d="M128 46.3228V48.1072C124.016 56.5075 115.274 61.0866 110.499 68.9981C106.523 75.5896 105.758 82.7434 102.719 89.1964C99.6551 95.7065 94.3756 96.065 89.3731 99.6582C83.5314 103.846 79.0422 113.583 74.6996 119.506C68.0432 128.575 58.8447 136.861 48.2938 141.008H43.5357C39.3561 139.093 38.077 135.46 33.6448 133.341C30.1251 131.655 25.0248 131.777 22.7272 130.571C18.2543 128.216 23.8027 118.48 24.7885 114.805C27.6564 104.082 24.9596 88.7238 26.9476 76.4696C29.4 61.3392 45.4911 48.8812 51.5446 34.3945C54.5592 27.1755 58.0544 16.9826 53.0519 10.0081C55.8465 10.277 58.6655 10.717 61.3704 11.4992C75.2781 15.4835 82.5944 32.0397 96.8606 37.9061C103.598 40.6764 114.972 40.1386 122.655 42.4526C125.262 43.2348 126.436 44.1066 128 46.331V46.3228ZM49.4752 45.7199C52.3512 44.7992 54.8362 43.2511 57.8019 42.4445C63.7658 40.8149 70.3896 41.7275 75.7751 38.9979C77.9993 37.8736 82.2767 34.6144 81.5842 31.7627C80.8916 28.911 77.2171 34.3374 76.8098 34.6715C68.3528 41.6378 56.4412 36.9121 49.4833 45.7199H49.4752ZM105.391 44.5384C100.902 46.0621 100.274 52.1322 99.427 56.1816L102.719 70.7336C103.159 65.022 101.056 59.8481 101.879 53.8188C102.336 50.4537 105.114 47.9116 105.391 44.5384ZM84.5661 45.728C82.8796 45.8747 82.79 47.439 80.9324 48.3435C74.9603 51.2441 70.6096 47.6264 65.1753 46.9828C57.5737 46.0784 52.6527 47.7405 47.6909 53.4603C52.2209 51.8389 57.3619 49.2967 62.2666 49.2479C69.2897 49.1827 83.4173 59.0741 84.5661 45.728ZM92.298 50.4945C88.9413 50.1686 86.6844 53.5825 86.9126 56.7357C87.1081 59.3918 91.4996 63.2294 93.0068 66.1626C96.388 72.7298 95.9155 76.38 94.5222 83.387C94.3674 84.1855 93.4142 84.5522 94.9704 84.43C98.987 79.745 98.2456 72.7053 95.9725 67.3522C94.0904 62.9117 89.422 59.1393 90.6359 53.8839C90.9618 52.4744 92.355 51.9122 92.2899 50.4863L92.298 50.4945ZM65.5337 61.8117C58.7144 61.9747 50.6077 57.6971 45.3119 64.1827C48.1716 63.3924 54.5673 68.1018 56.0665 68.0774C59.2765 68.0366 63.8472 64.4679 65.5419 61.8117H65.5337ZM80.4028 68.9492C79.2051 67.7107 78.3822 71.9313 78.2926 72.4935C76.9972 80.7635 79.4577 78.808 82.9937 83.4033C84.7372 85.6684 84.6068 88.1454 86.0652 90.3778C91.0026 82.3278 82.0649 76.1681 80.4109 68.9492H80.4028ZM35.7875 74.3104C35.1276 73.6016 33.1396 76.5918 32.83 77.0073C31.0213 79.4843 29.6607 81.122 30.7036 84.4626C31.6568 87.5261 35.7061 87.8846 36.2927 84.5766C36.7163 82.1812 32.3738 77.6999 35.7875 74.3186V74.3104ZM71.4732 92.1785L66.7396 95.4947C65.2323 95.8694 65.4523 93.531 65.6478 92.6103C66.2915 89.5386 69.8437 85.1714 68.8009 81.4642C64.9553 84.9107 65.1916 93.2947 63.1791 96.6761C61.7452 99.0715 56.7345 101.312 53.997 100.554C53.28 98.599 51.9683 95.1687 52.5549 93.2051C53.0926 91.3963 60.2053 85.4566 60.1728 82.059L52.7342 90.3941C51.3898 90.6467 51.9113 89.8075 51.8461 88.9194C51.7076 87.0454 51.9439 85.1225 51.8461 83.2567C37.8081 86.3284 31.0457 103.797 29.2533 116.597L37.0748 96.7494C38.4517 94.908 47.8946 83.4033 50.0618 85.6277L52.0009 101.85L53.4348 104.025L55.8383 103.626L68.5076 96.0406L69.6645 96.6353L65.5256 113.615C70.7888 108.148 73.4042 99.65 71.4651 92.1785H71.4732ZM50.07 126.114C53.5245 122.35 61.1341 115.473 59.4558 109.859C58.7714 107.57 56.2375 108.596 54.657 108.116C50.5018 106.861 47.3569 101.508 44.0816 101.956C36.6675 102.966 34.5084 114.626 34.0033 120.761C41.393 111.513 52.6038 112.043 50.0618 126.122L50.07 126.114ZM44.0327 122.627C40.7738 122.203 37.4985 122.285 35.7875 125.511C39.2502 124.582 42.2077 124.053 43.8127 127.898C45.32 127.222 44.709 123.873 44.0246 122.627H44.0327Z" fill="black"/>
</g>
<defs>
<clipPath id="clip0_52_113">
<rect width="107" height="131" fill="white" transform="translate(21 10)"/>
</clipPath>
</defs>
</svg>
