<svg width="150" height="150" viewBox="0 0 150 150" fill="none" xmlns="http://www.w3.org/2000/svg">
<path d="M75.004 10L95.9823 30.0272C93.3911 30.7981 86.8048 35.03 86.8048 37.9048V56.615H106.147C106.58 56.615 109.516 54.5753 110.11 54.0212C111.513 52.7043 113.591 47.8461 114.658 48.087L134 67.4477L114.626 86.7923C113.278 87.0974 109.781 78.2803 106.804 78.2803H86.8128V121.282L75.9988 140L64.5269 120.623V78.2723L45.49 77.8708C40.8771 78.8183 37.3313 87.4427 36.6654 87.4507L16 67.7769V67.1184L36.6494 47.4365C37.7645 49.8375 41.6633 56.615 44.5193 56.615H64.5108L63.5642 36.2264C62.4571 32.6129 54.9964 30.9025 55.3414 29.3848L74.3462 10H75.004Z" fill="black"/>
</svg>
