<svg width="150" height="150" viewBox="0 0 150 150" fill="none" xmlns="http://www.w3.org/2000/svg">
<path d="M107.503 49.918C113.651 48.7853 120.332 51.7375 126.034 51.9567C128.102 52.0371 135.727 50.4002 136.845 50.7071C140.558 51.7155 134.111 60.1261 133.512 61.7703C132.335 65.0074 132.781 70.7362 129.952 74.1779C128.68 75.7198 126.794 75.5005 125.281 76.772C124.067 77.795 120.617 84.5104 119.126 83.3193C121.019 80.9956 119.63 78.7961 119.849 76.0632C117.357 77.7 113.768 75.4567 111.86 76.392C110.975 76.8305 106.677 84.9269 105.317 83.3193L104.623 75.6613L93.2924 72.7092L85.0322 82.9685C87.386 85.8257 91.7427 86.3664 94.3377 88.8435C95.5585 90.0127 99.9883 97.108 101.311 97.108C102.642 96.6477 105.558 91.0576 106.765 92.0514C103.461 98.0287 109.835 101.324 114.769 98.9421C117.123 97.8095 116.801 93.3083 119.118 92.0441C120.712 95.0035 118.855 97.5099 119.133 100.33C119.243 101.449 120.31 102.523 120.317 103.297C120.317 104.013 118.38 107.886 117.51 108.259C115.134 109.282 109.725 108.237 106.67 108.42C105.522 108.485 104.36 109.552 102.81 109.457C100.712 109.333 97.6418 106.132 95.4196 105.19C87.4371 101.814 95.1491 110.875 95.7339 112.862C96.0117 113.812 96.1213 115.091 94.7836 114.536C92.1593 113.447 89.9737 107.199 86.4211 106.556C86.7573 112.694 92.3348 116.392 96.5892 119.994H93.6871C96.8231 122.369 99.5716 125.935 103.855 126.169L100.23 127.243L106.765 131.233L95.5073 128.332L97.3129 130.509C93.8114 129.83 91.5307 128.712 87.8684 129.801L91.5015 131.963C68.3655 131.079 47.2909 117.451 59.5132 92.0295C48.8845 98.6718 34.8494 105.321 22.481 107.682C21.7354 107.828 20.098 108.632 20.2661 107.287C24.3158 107.06 26.3699 103.896 29.7032 102.91C29.8787 101.565 28.2339 102.369 27.4883 102.508C25.807 102.83 24.2208 103.728 22.4444 103.633C23.5482 101.748 26.4722 103.071 26.8012 100.016L13 104.379C13.4825 102.735 17.1374 102.208 17.9123 101.259C18.5482 100.477 17.7149 98.4306 20.9898 98.5695L18.8114 97.846C24.9664 93.4471 32.386 90.6484 38.9649 86.3956C47.0936 81.1417 54.2135 74.536 61.6988 68.4418C61.019 67.2726 60.0687 68.7194 59.4474 69.0994C55.3099 71.6569 51.538 74.8137 47.386 77.3858C38.9649 82.5959 29.9664 86.9875 21.6623 92.4168C19.4254 92.6287 18.1974 92.3218 19.5643 90.2904L18.2412 89.7643L18.8041 87.6963L15.1784 89.8665L35.5292 66.2715C32.8611 64.9197 32.2325 67.6453 31.0921 68.376C29.8933 69.1433 24.0526 72.9942 23.519 73.1622C23.1462 73.2792 22.3348 73.3595 22.4444 72.8115L24.6228 70.2759L20.9898 70.9847L34.0746 58.2774C32.7734 57.0498 28.7091 61.2953 28.2705 60.8203L33.095 52.4755C31.3918 47.7916 29.5716 42.5815 28.4825 37.7295C27.6491 34.032 28.2193 29.6331 26.0848 27.0463C28.1316 26.5056 27.2471 23.0201 28.2705 20.8864L28.9942 23.7946L30.4269 23.0639C30.6023 24.1673 30.7339 25.2634 31.6842 26.016C34.5716 28.3178 45.1345 31.3357 49.1111 33.104C50.9532 33.9224 56.0263 37.4957 56.9547 37.5395C59.1915 37.6418 63.1316 34.6166 66.0044 35.3547C65.8801 33.5644 67.2325 30.963 66.8304 29.3847C66.5892 28.4201 63.7164 28.822 65.3172 25.2926L61.7573 23.4439L62.4298 21.6171L65.3319 21.9897L60.9825 19.4322L64.6082 20.1629L64.9664 18C76.0482 22.304 82.7953 33.2721 92.7295 38.9206C96.2091 40.9008 105.873 42.6911 107.518 44.4887C109.162 46.2863 107.415 47.8792 107.518 49.9399L107.503 49.918ZM90.7778 52.0882C87.5614 46.5712 81.9766 48.9169 76.9693 49.9253L82.5833 54.1708L90.7778 52.0882Z" fill="black"/>
</svg>
