<svg width="150" height="150" viewBox="0 0 150 150" fill="none" xmlns="http://www.w3.org/2000/svg">
<g clip-path="url(#clip0_51_112)">
<path d="M88.0702 34.6976C88.1182 35.4051 88.3505 37.0612 87.7338 37.4391C83.6576 34.8745 78.6764 32.8726 73.9114 32.133C71.3968 31.739 58.1511 31.2888 57.0219 32.6314C56.3492 33.4354 56.141 35.6382 55.9968 36.7557C55.1639 37.5114 46.1225 30.6939 46.4749 36.3216C46.531 37.2381 47.7242 38.7817 46.7952 39.4972C45.0094 38.9425 43.5839 36.3618 42.3266 35.7588C39.804 34.5529 35.7037 35.0111 34.1741 31.2808C36.1041 31.8677 37.6177 32.0365 38.931 30.1874L36.9049 25.7897C41.5017 27.6871 45.2336 27.3816 49.8624 25.7737L46.4589 19.6073C46.6911 19.3018 51.6883 23.9085 53.266 22.0111L51.2318 17.5492C61.1942 25.6933 71.8053 18.3451 78.5002 10C78.6524 12.4199 78.8125 14.269 77.1468 16.1664L81.2311 14.1163L79.8697 20.974C82.5845 20.0575 85.8038 23.1929 86.6847 25.4521C87.4295 27.3735 83.7937 25.8621 83.2892 26.8108C85.7237 28.9091 86.5967 32.1892 88.0622 34.7056C87.894 32.4063 86.7568 30.7582 86.7088 28.5312C86.917 28.2579 90.8331 31.0878 90.1043 28.885L83.6416 18.9159C111.535 24.8893 133.189 47.6011 135.816 76.5436C136.048 79.0841 136.08 83.6425 135.816 86.1509C131.964 122.61 92.9713 146.006 58.7196 138.657C9.9649 128.19 -5.59529 61.8874 40.837 37.5356L49.1897 40.8639L47.8203 37.0612L48.9174 35.4051L58.7357 38.8058L57.3742 33.3309C78.2119 30.0909 101.732 41.2498 108.531 62.1367L111.246 60.7619C109.3 67.2016 112.832 72.5319 112.616 78.9233C112.4 85.3148 109.613 90.838 107.835 96.7631L109.885 97.7922C104.671 98.3228 102.237 104.119 98.6092 107.383C88.7269 116.283 73.9755 118.325 61.4585 114.957C62.7879 118.398 71.0525 117.746 72.2697 118.486C72.478 118.615 73.5991 121.75 74.424 122.836C75.7934 124.636 77.8355 125.553 79.1889 127.289C59.2162 130.835 42.3186 115.986 39.6358 96.4335L43.8001 102.182C54.8116 112.698 69.7872 93.6599 78.5162 99.5046C78.7965 99.6896 79.4132 100.365 79.1889 100.534C73.2147 100.18 70.9804 106.588 73.0466 111.508L61.4585 111.17C79.6134 119.395 101.26 105.422 105.472 86.8423C107.13 79.5263 107.33 74.9035 101.02 70.0074L105.104 71.0365C103.558 50.5356 80.7506 37.4632 61.8109 38.8058C42.8711 40.1484 21.3768 57.8516 21.9133 78.6017L25.3089 75.8602C16.8521 97.752 37.1612 120.826 57.2221 126.429C111.615 141.624 144.713 73.2474 98.2408 42.6487C93.2756 39.3847 91.2175 40.1163 88.0702 34.7056V34.6976ZM72.3819 25.0823C71.6531 23.1608 68.3056 23.5467 66.5758 23.7155C65.807 23.7959 60.8098 24.7044 61.4745 26.1113C65.815 30.7662 67.8812 24.2703 72.3819 25.0823Z" fill="black"/>
<path d="M69.6509 40.1967C70.644 41.274 69.3226 41.3704 68.778 41.7242C64.7979 44.2968 61.9549 44.7149 59.6005 49.6271C58.7836 51.3234 59.4083 54.3704 57.3902 53.9041C57.6224 51.9586 51.3999 43.4607 51.9205 42.9382L57.0138 44.3451C58.6635 44.0798 59.9448 40.3735 62.6516 39.6741C63.957 39.3364 68.9222 39.4088 69.6429 40.1967H69.6509Z" fill="black"/>
</g>
<defs>
<clipPath id="clip0_51_112">
<rect width="123" height="130" fill="white" transform="translate(13 10)"/>
</clipPath>
</defs>
</svg>
