<svg width="150" height="150" viewBox="0 0 150 150" fill="none" xmlns="http://www.w3.org/2000/svg">
<path d="M79.8405 103.003C78.7921 101.955 76.8355 103.136 75.8166 102.124C73.5868 99.9094 79.0283 96.3875 82.7422 98.2924C89.1953 101.6 85.7841 111.627 79.9586 113.997C77.4409 115.023 75.4622 114.27 73.0552 113.163C70.1018 111.804 61.7143 105.403 61.825 102.124C61.9358 98.8462 70.0797 89.9639 72.7229 87.6234C74.9601 85.6373 78.6075 82.2188 81.6568 82.8242C84.625 83.4149 88.7597 87.8228 90.6793 88.3027C91.3365 88.4651 92.3406 88.1698 92.3701 87.6308C92.444 86.191 84.4108 78.5714 82.4025 77.9216C78.9988 76.8289 72.494 82.4624 69.8729 84.766C59.4919 93.8919 51.1191 106.85 41.373 116.773C37.3786 119.047 35.5697 111.066 34.2111 108.548C33.8198 107.824 34.2481 107.278 32.9191 107.544C31.6934 112.564 36.2564 116.478 37.5632 120.989C28.3487 113.547 28.9837 99.614 36.2711 90.9902C37.194 89.8975 43.8317 83.8505 44.8063 84.7956C44.9761 87.173 42.4879 89.1591 43.5142 91.5145C53.3341 81.1482 63.2279 64.5208 79.7076 66.182C87.8736 67.009 90.6867 75.175 98.0701 77.5525C95.892 69.7334 88.6046 65.6135 81.2434 63.5978C80.4164 63.369 79.715 64.1516 79.9808 62.5642C81.9669 62.4977 83.9604 63.0515 85.8063 63.7086C93.4924 66.4478 100.078 75.9872 106.074 81.7019C110.253 85.6816 118.227 89.0262 110.142 94.5343C108.584 95.5975 98.0923 100.891 96.3867 101.46C91.6023 103.055 91.5432 100.146 89.0328 97.1997C87.2756 95.1323 82.72 89.0115 80.0842 89.772C78.7921 90.1411 69.4078 97.8715 68.9943 98.8905C66.7498 104.339 77.4335 111.59 80.0029 107.322C80.6748 106.207 80.7634 103.933 79.8479 103.018L79.8405 103.003Z" fill="black"/>
<path d="M127.537 87.3724C125.817 89.7941 122.797 91.8098 121.586 94.6007C119.954 98.3663 120.176 105.58 118.714 110.35C111.759 133.053 76.4811 141.138 56.856 131.414C52.9797 129.495 49.5612 125.205 44.7989 127.191L54.2718 132.965C67.0082 139.115 82.6241 141.153 95.737 134.951L95.9732 136.472C81.6864 141.869 66.5652 140.54 53.0536 133.659C50.9345 132.581 45.2198 128.343 43.4552 128.225C40.3541 128.025 38.1243 133.098 34.9643 132.869C34.5656 132.5 36.1604 130.499 36.5295 130.041C39.5936 126.165 43.7357 121.55 47.1099 117.866C49.0665 115.732 53.5261 109.98 56.2949 110.217C58.377 110.394 64.0401 115.178 66.4987 116.596C68.9574 118.013 78.7773 122.931 81.1252 122.444C83.4731 121.956 90.5317 112.454 93.1528 110.135C99.7978 104.273 108.488 100.914 115.702 95.9667C118.995 93.7073 122.295 89.9861 125.44 88.1181C126.127 87.712 126.496 87.0992 127.53 87.365L127.537 87.3724Z" fill="black"/>
<path d="M58.2441 23.2402C57.6387 31.0371 67.5989 35.2899 68.5439 42.1639C69.8508 51.6663 63.3682 61.7077 52.9576 57.2334C43.2853 53.0765 44.7768 41.1597 49.037 33.4293C51.0674 29.745 54.2644 26.8876 56.6862 23.4987L58.2441 23.2476V23.2402Z" fill="black"/>
<path d="M29.2938 75.4703C34.9421 70.9148 37.5484 63.3616 44.2821 59.9578C44.1935 62.2688 41.9342 63.3099 41.4026 65.6061C40.4206 69.859 40.967 73.8608 39.1285 78.3277C34.6615 89.1665 22.634 85.8736 18.6913 76.4966C15.3466 68.5447 18.9497 58.267 22.4716 50.8172C25.8974 43.5815 25.4397 51.0904 28.0239 54.7525C29.4932 56.8347 34.189 59.2712 34.4548 60.7479C35.1784 64.794 29.1609 70.9296 29.2864 75.4703H29.2938Z" fill="black"/>
<path d="M117.2 40.8274C118.522 40.6724 119.585 41.6396 120.545 42.3927C123.321 44.5782 131.827 60.3344 132.196 63.8341C133.599 77.2276 115.037 83.6364 109.861 71.69C106.509 63.967 112.076 60.076 115.214 54.1028C117.717 49.3479 118.448 46.2985 117.2 40.8274Z" fill="black"/>
<path d="M104.265 18.0718C105.402 19.5116 96.7189 28.0173 95.4933 29.7155C94.5335 31.0445 93.7213 32.4252 92.9091 33.8428C93.5146 34.5885 93.5588 34.6697 94.4818 34.4039C96.3867 33.8575 98.6977 29.9443 101.622 31.0592C102.788 33.9978 102.183 37.5566 101.053 40.4435C97.0955 50.5292 82.3509 48.9418 79.3015 39.1662C75.3809 26.607 92.0526 22.7898 91.0854 10.3045C91.7425 9.07149 93.5441 11.9584 93.7582 12.3054C94.6885 13.8264 97.1989 20.3828 98.0701 20.944C99.8052 22.0515 103.947 17.651 104.272 18.0718H104.265Z" fill="black"/>
</svg>
