<svg width="150" height="150" viewBox="0 0 150 150" fill="none" xmlns="http://www.w3.org/2000/svg">
<path d="M136.775 120.857L115.167 18.2823C114.887 16.9409 114.345 15.6679 113.571 14.5364C112.798 13.4048 111.808 12.437 110.658 11.6886C109.509 10.9403 108.222 10.426 106.873 10.1754C105.524 9.92484 104.139 9.94288 102.797 10.2285L72.3206 16.7678C69.6249 17.3571 67.2713 18.9852 65.7716 21.2981C64.272 23.6109 63.7476 26.4214 64.3126 29.1183L85.9212 131.693C86.4028 134.033 87.6767 136.136 89.5287 137.649C91.3807 139.162 93.6979 139.992 96.0908 140C96.8305 139.999 97.568 139.92 98.2914 139.766L128.767 133.227C131.466 132.636 133.822 131.005 135.322 128.688C136.822 126.371 137.344 123.556 136.775 120.857ZM74.5017 26.9927V26.9342L104.971 20.4339L107.139 30.7499L76.6697 37.2956L74.5017 26.9927ZM78.8117 47.4491L109.294 40.9163L111.469 51.2517L81.0123 57.791L78.8117 47.4491ZM83.1347 67.9704L113.617 61.4312L122.276 102.539L91.7938 109.078L83.1347 67.9704ZM126.586 123.06L96.1168 129.561L93.9488 119.245L124.418 112.699L126.586 123.002V123.06ZM53.6678 15.1947H22.4169C19.6542 15.1947 17.0046 16.2905 15.0511 18.2409C13.0975 20.1914 12 22.8368 12 25.5951V129.6C12 132.358 13.0975 135.003 15.0511 136.954C17.0046 138.904 19.6542 140 22.4169 140H53.6678C56.4305 140 59.0801 138.904 61.0337 136.954C62.9872 135.003 64.0847 132.358 64.0847 129.6V25.5951C64.0847 22.8368 62.9872 20.1914 61.0337 18.2409C59.0801 16.2905 56.4305 15.1947 53.6678 15.1947ZM22.4169 25.5951H53.6678V35.9956H22.4169V25.5951ZM22.4169 46.396H53.6678V108.799H22.4169V46.396ZM53.6678 129.6H22.4169V119.199H53.6678V129.6Z" fill="black"/>
</svg>
