<svg width="150" height="150" viewBox="0 0 150 150" fill="none" xmlns="http://www.w3.org/2000/svg">
<path d="M129.737 112.529C132.373 112.531 134.907 113.543 136.814 115.357C138.722 117.171 139.856 119.647 139.983 122.273C140.11 124.898 139.219 127.472 137.495 129.46C135.771 131.448 133.345 132.699 130.722 132.952L129.737 133H20.2632C17.6275 132.999 15.0933 131.986 13.1858 130.172C11.2783 128.358 10.1436 125.882 10.0169 123.257C9.89028 120.631 10.7813 118.058 12.5054 116.069C14.2295 114.081 16.6545 112.831 19.2779 112.577L20.2632 112.529H129.737ZM129.737 64.7647C132.459 64.7647 135.069 65.8431 136.994 67.7626C138.919 69.682 140 72.2854 140 75C140 77.7146 138.919 80.318 136.994 82.2374C135.069 84.1569 132.459 85.2353 129.737 85.2353H20.2632C17.5412 85.2353 14.9307 84.1569 13.006 82.2374C11.0813 80.318 10 77.7146 10 75C10 72.2854 11.0813 69.682 13.006 67.7626C14.9307 65.8431 17.5412 64.7647 20.2632 64.7647H129.737ZM129.737 17C132.459 17 135.069 18.0784 136.994 19.9978C138.919 21.9173 140 24.5207 140 27.2353C140 29.9499 138.919 32.5533 136.994 34.4727C135.069 36.3922 132.459 37.4706 129.737 37.4706H20.2632C17.5412 37.4706 14.9307 36.3922 13.006 34.4727C11.0813 32.5533 10 29.9499 10 27.2353C10 24.5207 11.0813 21.9173 13.006 19.9978C14.9307 18.0784 17.5412 17 20.2632 17H129.737Z" fill="black"/>
</svg>
