<svg width="150" height="150" viewBox="0 0 150 150" fill="none" xmlns="http://www.w3.org/2000/svg">
<path d="M30.625 125.143H52.5625V88C52.5625 85.8952 53.2645 84.1322 54.6685 82.7108C56.0725 81.2895 57.808 80.5764 59.875 80.5714H89.125C91.1969 80.5714 92.9348 81.2846 94.3388 82.7108C95.7428 84.1371 96.4424 85.9002 96.4375 88V125.143H118.375V58.2857L74.5 24.8571L30.625 58.2857V125.143ZM16 125.143V58.2857C16 55.9333 16.5192 53.7048 17.5576 51.6C18.5959 49.4952 20.0268 47.7619 21.85 46.4L65.725 12.9714C68.2844 10.9905 71.2094 10 74.5 10C77.7906 10 80.7156 10.9905 83.275 12.9714L127.15 46.4C128.978 47.7619 130.411 49.4952 131.45 51.6C132.488 53.7048 133.005 55.9333 133 58.2857V125.143C133 129.229 131.567 132.727 128.7 135.639C125.834 138.551 122.392 140.005 118.375 140H89.125C87.0531 140 85.3176 139.287 83.9185 137.861C82.5194 136.434 81.8174 134.671 81.8125 132.571V95.4286H67.1875V132.571C67.1875 134.676 66.4855 136.442 65.0815 137.868C63.6775 139.294 61.942 140.005 59.875 140H30.625C26.6031 140 23.1614 138.546 20.2997 135.639C17.4381 132.732 16.0049 129.233 16 125.143Z" fill="black"/>
</svg>
