<svg width="150" height="150" viewBox="0 0 150 150" fill="none" xmlns="http://www.w3.org/2000/svg">
<path d="M58.0797 106.159C44.642 106.159 33.2706 101.504 23.9653 92.194C14.66 82.8838 10.0049 71.5124 10 58.0797C9.99507 44.6469 14.6502 33.2755 23.9653 23.9653C33.2804 14.6551 44.6519 10 58.0797 10C71.5074 10 82.8814 14.6551 92.2014 23.9653C101.521 33.2755 106.174 44.6469 106.159 58.0797C106.159 63.504 105.296 68.6202 103.57 73.4282C101.844 78.2361 99.5021 82.4893 96.5434 86.1878L137.966 127.61C139.322 128.966 140 130.692 140 132.788C140 134.884 139.322 136.61 137.966 137.966C136.61 139.322 134.884 140 132.788 140C130.692 140 128.966 139.322 127.61 137.966L86.1878 96.5434C82.4893 99.5021 78.2361 101.844 73.4282 103.57C68.6202 105.296 63.504 106.159 58.0797 106.159ZM58.0797 91.3656C67.3257 91.3656 75.1862 88.1307 81.6609 81.6609C88.1356 75.1911 91.3705 67.3307 91.3656 58.0797C91.3606 48.8286 88.1257 40.9707 81.6609 34.5058C75.196 28.041 67.3356 24.8036 58.0797 24.7937C48.8237 24.7839 40.9658 28.0212 34.5058 34.5058C28.0459 40.9904 24.8085 48.8484 24.7937 58.0797C24.7789 67.311 28.0163 75.1714 34.5058 81.6609C40.9954 88.1504 48.8533 91.3853 58.0797 91.3656Z" fill="black"/>
</svg>
