<svg width="150" height="150" viewBox="0 0 150 150" fill="none" xmlns="http://www.w3.org/2000/svg">
<path d="M13.4297 86.1628C13.7667 84.9716 15.765 84.2428 16.7759 85.575C19.5266 89.1956 17.0032 102.338 26.1329 100.465C33.2094 99.0149 34.957 95.5041 35.4663 88.6313C37.9741 88.216 37.8408 91.2331 39.079 92.9807C42.6761 98.0745 50.9594 94.07 56.398 95.2141C56.641 96.609 56.1864 96.2015 55.3009 96.5542C47.7229 99.5713 39.6041 100.488 31.6734 104.336C22.865 108.607 14.4328 114.257 26.1407 121.788C28.9306 123.583 41.7278 128.967 44.549 128.692C46.8451 128.473 46.7668 124.884 47.5583 123.254C39.7451 120.127 34.6513 112.478 43.0052 106.279C53.9295 98.1764 92.8541 99.3519 104.891 105.37C113.966 109.916 113.511 117.917 104.358 121.584C104.17 121.827 105.738 127.07 106.129 127.462C108.19 129.499 117.54 125.581 120.149 124.398C149.106 111.217 110.173 100.394 98.0655 96.9068L97.7363 95.2141C104.781 95.2846 112.046 97.9648 113.786 88.694L115.917 88.6157C116.035 91.3271 115.314 94.6264 117.265 96.8833C118.355 98.1529 125.972 101.256 127.523 101.013C133.103 100.128 132.476 88.0828 134.631 85.575C135.924 84.0704 137.962 85.387 137.962 86.1471V116.882C137.962 117.321 135.909 121.404 135.446 122.062C127.672 133.136 97.9401 137.861 85.3858 136.309C83.5206 136.082 82.1884 135.009 84.3435 133.723C86.9453 132.18 96.6627 132.454 98.5513 130.314C100.44 128.175 99.4761 115.245 100.503 114.414L102.117 114.43L102.705 117.157C109.773 115.166 107.548 110.942 102.321 107.933C89.2963 100.433 63.0748 101.013 49.9798 108.278C44.6509 111.232 42.6447 113.771 48.9767 117.149C50.1757 115.966 49.6663 113.928 52.0017 114.414C52.4875 117.611 52.0487 128.481 53.8981 130.361C56.0219 132.532 69.3442 132.281 70.4805 134.147L70.1748 136.074C66.7894 137.219 62.9886 137.03 59.4465 136.905C47.4642 136.474 21.2036 132.321 14.9657 120.832C14.6914 120.323 13.4297 117.627 13.4297 117.423V86.1393V86.1628Z" fill="black"/>
<path d="M76.115 13.5798L90.08 51.039L89.4609 52.6768L74.869 61.5166C73.9365 61.5479 62.2364 54.7065 60.9511 53.6486C60.2537 53.0765 59.4152 52.6455 59.376 51.5954L73.2077 15.0844C73.9208 13.6425 74.485 12.3808 76.115 13.5876V13.5798Z" fill="black"/>
<path d="M93.3321 121.012C93.1754 122.345 93.8337 124.805 92.7836 125.691C90.2288 127.846 70.2062 127.885 66.0606 127.595C64.6657 127.501 59.3525 126.874 58.4512 126.396C56.8212 125.534 57.6049 122.932 57.597 121.365C57.7851 120.66 58.2788 120.566 58.9058 120.456C61.4683 119.986 69.2893 121.961 72.6512 122.141C79.6023 122.509 86.4202 121.302 93.34 121.02L93.3321 121.012Z" fill="black"/>
<path d="M72.3927 90.5513C72.3456 90.7472 71.4758 91.5152 71.2955 91.3742L61.3508 61.4695C61.3508 60.7329 61.2568 60.3881 62.1815 60.6545C62.7693 60.8191 70.9742 65.6621 71.4288 66.1088C71.7344 66.4066 72.3927 67.1746 72.3927 67.5038V90.5592V90.5513Z" fill="black"/>
<path d="M77.9017 66.1323C81.1775 65.0352 84.2808 61.7438 87.29 60.3881C87.7054 60.2 88.8809 59.7141 88.9279 60.3724C85.5346 69.2592 83.262 80.2383 79.4299 88.7802C79.0851 89.5482 78.8813 90.6062 77.9017 90.8256V66.1245V66.1323Z" fill="black"/>
<path d="M38.7812 31.0007C40.5523 32.6934 40.9598 35.5459 42.3939 37.5521C43.491 39.0881 45.3561 40.2087 46.4533 41.7761C46.5943 42.5597 43.7496 44.8324 43.0757 45.9765C41.7826 48.1629 41.9785 50.3807 40.709 52.3947C38.8282 48.5626 37.1042 45.0753 33.272 42.787C36.3048 39.1351 38.5853 35.9926 38.789 31.0007H38.7812Z" fill="black"/>
<path d="M113.715 41.9798C113.684 46.4232 115.102 50.9449 118.668 53.7818C115.102 56.0309 113.002 59.0872 111.239 62.8253C110.071 60.874 110.251 58.8521 109.24 56.5951C108.512 54.973 107.266 53.4056 106.027 52.1361C109.719 49.4246 110.659 46.5172 112.571 42.7635C112.869 42.1835 112.281 41.7212 113.723 41.9798H113.715Z" fill="black"/>
<path d="M100.503 65.5838C101.921 64.5885 104.609 72.4565 104.64 73.5301C104.672 74.7683 101.804 82.5109 101.083 84.0077C100.769 84.6503 100.628 85.4732 99.672 85.3399C98.9667 85.1675 95.9887 75.4579 96.0436 74.1022C96.1768 71.0773 99.6955 68.4677 100.495 65.5916L100.503 65.5838Z" fill="black"/>
<path d="M50.9045 85.34L46.4533 74.6351C46.4533 73.6163 49.4156 66.8377 50.0738 66.6809C51.1004 66.4301 54.4937 72.9346 54.5721 74.1649C54.6269 75.0269 52.8088 83.6002 52.417 84.3917C52.0565 85.1362 51.8214 85.5202 50.9045 85.34Z" fill="black"/>
<path d="M14.903 67.8564C17.9201 67.6057 18.9858 75.1523 15.3261 75.4815C11.6664 75.8106 11.2119 68.1621 14.903 67.8564Z" fill="black"/>
<path d="M136.771 63.2955C130.627 64.9177 131.943 54.3774 136.308 56.5168C138.651 57.6688 138.017 61.4852 136.771 63.2955Z" fill="black"/>
</svg>
