<svg width="150" height="150" viewBox="0 0 150 150" fill="none" xmlns="http://www.w3.org/2000/svg">
<path d="M126.787 79.2894C125.767 78.1034 125.205 76.5787 125.205 75C125.205 73.4213 125.767 71.8966 126.787 70.7106L134.93 61.3519C135.827 60.3293 136.384 59.0427 136.521 57.6767C136.659 56.3106 136.369 54.9352 135.693 53.7479L122.97 31.2609C122.301 30.075 121.283 29.1349 120.061 28.5748C118.839 28.0146 117.474 27.8629 116.163 28.1414L104.203 30.611C102.681 30.9323 101.097 30.6734 99.749 29.8831C98.4012 29.0929 97.3831 27.8261 96.8869 26.3216L93.0063 14.4282C92.5795 13.1374 91.7664 12.0162 90.6819 11.2231C89.5974 10.4301 88.2964 10.0053 86.9627 10.0088H61.5159C60.1286 9.93487 58.7558 10.3268 57.6071 11.1248C56.4583 11.9228 55.5969 13.083 55.1542 14.4282L51.5917 26.3216C51.0955 27.8261 50.0774 29.0929 48.7296 29.8831C47.3819 30.6734 45.7976 30.9323 44.2757 30.611L31.9977 28.1414C30.7543 27.9619 29.4867 28.1623 28.3546 28.7175C27.2225 29.2726 26.2766 30.1576 25.636 31.2609L12.9126 53.7479C12.2202 54.9219 11.9089 56.2896 12.0231 57.6553C12.1374 59.021 12.6714 60.3149 13.5488 61.3519L21.6281 70.7106C22.648 71.8966 23.2105 73.4213 23.2105 75C23.2105 76.5787 22.648 78.1034 21.6281 79.2894L13.5488 88.6481C12.6714 89.6851 12.1374 90.979 12.0231 92.3447C11.9089 93.7104 12.2202 95.078 12.9126 96.2521L25.636 118.739C26.3046 119.925 27.3226 120.865 28.5449 121.425C29.7672 121.985 31.1314 122.137 32.443 121.859L44.403 119.389C45.9248 119.068 47.5091 119.327 48.8569 120.117C50.2047 120.907 51.2227 122.174 51.7189 123.678L55.5995 135.572C56.0422 136.917 56.9037 138.077 58.0524 138.875C59.2011 139.673 60.574 140.065 61.9612 139.991H87.408C88.7417 139.995 90.0427 139.57 91.1272 138.777C92.2117 137.984 93.0248 136.863 93.4516 135.572L97.3322 123.678C97.8284 122.174 98.8465 120.907 100.194 120.117C101.542 119.327 103.126 119.068 104.648 119.389L116.608 121.859C117.92 122.137 119.284 121.985 120.506 121.425C121.729 120.865 122.747 119.925 123.415 118.739L136.139 96.2521C136.814 95.0648 137.104 93.6894 136.967 92.3233C136.83 90.9573 136.272 89.6707 135.375 88.6481L126.787 79.2894ZM117.308 87.9982L122.397 93.8474L114.254 108.275L106.748 106.716C102.166 105.759 97.3995 106.554 93.3536 108.95C89.3077 111.346 86.2638 115.176 84.7997 119.714L82.3823 126.993H66.0963L63.8061 119.584C62.342 115.047 59.2981 111.216 55.2522 108.82C51.2063 106.424 46.4401 105.629 41.8583 106.586L34.3515 108.145L26.0813 93.7824L31.1706 87.9332C34.3003 84.3586 36.0305 79.7309 36.0305 74.935C36.0305 70.1391 34.3003 65.5114 31.1706 61.9368L26.0813 56.0876L34.2243 41.7895L41.7311 43.3493C46.3129 44.3061 51.0791 43.511 55.125 41.1149C59.1709 38.7188 62.2148 34.8885 63.6789 30.3511L66.0963 23.0071H82.3823L84.7997 30.4161C86.2638 34.9535 89.3077 38.7838 93.3536 41.1799C97.3995 43.576 102.166 44.3711 106.748 43.4143L114.254 41.8545L122.397 56.2825L117.308 62.1318C114.213 65.6982 112.505 70.2991 112.505 75.065C112.505 79.8309 114.213 84.4318 117.308 87.9982ZM74.2393 49.0035C69.2064 49.0035 64.2865 50.5282 60.1018 53.3847C55.9171 56.2413 52.6556 60.3013 50.7296 65.0516C48.8035 69.8018 48.2996 75.0288 49.2815 80.0717C50.2634 85.1145 52.6869 89.7466 56.2457 93.3823C59.8045 97.0179 64.3387 99.4939 69.2749 100.497C74.2111 101.5 79.3276 100.985 83.9774 99.0176C88.6271 97.05 92.6014 93.718 95.3975 89.4429C98.1936 85.1678 99.6861 80.1416 99.6861 75C99.6861 68.1053 97.0051 61.493 92.2329 56.6177C87.4607 51.7424 80.9882 49.0035 74.2393 49.0035ZM74.2393 87.9982C71.7229 87.9982 69.2629 87.2359 67.1706 85.8076C65.0782 84.3794 63.4474 82.3493 62.4844 79.9742C61.5214 77.5991 61.2695 74.9856 61.7604 72.4642C62.2513 69.9428 63.4631 67.6267 65.2425 65.8089C67.0219 63.991 69.289 62.7531 71.7571 62.2515C74.2252 61.75 76.7834 62.0074 79.1083 62.9912C81.4332 63.975 83.4203 65.641 84.8184 67.7786C86.2165 69.9161 86.9627 72.4292 86.9627 75C86.9627 78.4473 85.6222 81.7535 83.2361 84.1911C80.85 86.6288 77.6138 87.9982 74.2393 87.9982Z" fill="black"/>
</svg>
