<?xml version="1.0" encoding="UTF-8"?>
<svg id="Capa_1" data-name="Capa 1" xmlns="http://www.w3.org/2000/svg" xmlns:xlink="http://www.w3.org/1999/xlink" viewBox="0 0 192 192">
  <defs>
    <style>
      .cls-1 {
        fill: url(#Degradado_sin_nombre_31-6);
      }

      .cls-2 {
        fill: url(#Degradado_sin_nombre_31-5);
      }

      .cls-3 {
        fill: url(#Degradado_sin_nombre_31-2);
      }

      .cls-4 {
        fill: url(#Degradado_sin_nombre_31-7);
      }

      .cls-5 {
        fill: url(#Degradado_sin_nombre_31-9);
      }

      .cls-6 {
        fill: url(#Degradado_sin_nombre_31-8);
      }

      .cls-7 {
        fill: url(#Degradado_sin_nombre_31-3);
      }

      .cls-8 {
        fill: url(#Degradado_sin_nombre_31-4);
      }

      .cls-9 {
        fill: url(#Degradado_sin_nombre_31);
      }

      .cls-10 {
        fill: url(#Degradado_sin_nombre_31-10);
      }

      .cls-11 {
        fill: url(#Degradado_sin_nombre_31-11);
      }
    </style>
    <linearGradient id="Degradado_sin_nombre_31" data-name="Degradado sin nombre 31" x1="96.6" y1="26.73" x2="96.6" y2="158.45" gradientUnits="userSpaceOnUse">
      <stop offset="0" stop-color="#010326"/>
      <stop offset=".37" stop-color="#395bbf"/>
      <stop offset=".76" stop-color="#032973"/>
      <stop offset="1" stop-color="#04d99d"/>
    </linearGradient>
    <linearGradient id="Degradado_sin_nombre_31-2" data-name="Degradado sin nombre 31" x1="95.54" x2="95.54" xlink:href="#Degradado_sin_nombre_31"/>
    <linearGradient id="Degradado_sin_nombre_31-3" data-name="Degradado sin nombre 31" x1="96.28" x2="96.28" xlink:href="#Degradado_sin_nombre_31"/>
    <linearGradient id="Degradado_sin_nombre_31-4" data-name="Degradado sin nombre 31" x1="86.85" x2="86.85" xlink:href="#Degradado_sin_nombre_31"/>
    <linearGradient id="Degradado_sin_nombre_31-5" data-name="Degradado sin nombre 31" x1="105.13" y1="26.73" x2="105.13" y2="158.45" xlink:href="#Degradado_sin_nombre_31"/>
    <linearGradient id="Degradado_sin_nombre_31-6" data-name="Degradado sin nombre 31" x1="57.02" y1="26.73" x2="57.02" y2="158.45" xlink:href="#Degradado_sin_nombre_31"/>
    <linearGradient id="Degradado_sin_nombre_31-7" data-name="Degradado sin nombre 31" x1="137.08" y1="26.73" x2="137.08" y2="158.45" xlink:href="#Degradado_sin_nombre_31"/>
    <linearGradient id="Degradado_sin_nombre_31-8" data-name="Degradado sin nombre 31" x1="123.83" y1="26.73" x2="123.83" y2="158.45" xlink:href="#Degradado_sin_nombre_31"/>
    <linearGradient id="Degradado_sin_nombre_31-9" data-name="Degradado sin nombre 31" x1="68.79" y1="26.73" x2="68.79" y2="158.45" xlink:href="#Degradado_sin_nombre_31"/>
    <linearGradient id="Degradado_sin_nombre_31-10" data-name="Degradado sin nombre 31" x1="29.56" y1="26.73" x2="29.56" y2="158.45" xlink:href="#Degradado_sin_nombre_31"/>
    <linearGradient id="Degradado_sin_nombre_31-11" data-name="Degradado sin nombre 31" x1="162.38" y1="26.73" x2="162.38" y2="158.45" xlink:href="#Degradado_sin_nombre_31"/>
  </defs>
  <path class="cls-9" d="M161.7,107.63c-2.38,2.77-1.69,16.07-7.85,17.05-1.71.27-10.13-3.16-11.33-4.56-2.15-2.5-1.35-6.14-1.49-9.14l-2.36.08c-1.93,10.24-9.95,7.28-17.73,7.2l.37,1.87c13.37,3.85,56.38,15.81,24.39,30.37-2.88,1.31-13.21,5.64-15.48,3.39-.43-.43-2.16-6.22-1.96-6.49,10.1-4.05,10.61-12.89.59-17.91-13.29-6.65-56.29-7.95-68.36,1-9.23,6.85-3.6,15.3,5.03,18.75-.87,1.79-.78,5.76-3.32,6.01-3.11.3-17.25-5.65-20.33-7.63-12.93-8.32-3.61-14.56,6.11-19.28,8.75-4.25,17.72-5.26,26.1-8.59.98-.39,1.49.06,1.21-1.48-6-1.27-15.16,3.16-19.13-2.47-1.37-1.94-1.22-5.27-3.99-4.81-.56,7.59-2.49,11.47-10.31,13.07-10.09,2.07-7.3-12.45-10.34-16.45-1.12-1.47-3.33-.66-3.7.65v34.56c0,.23,1.39,3.2,1.7,3.76,6.89,12.69,35.89,17.27,49.13,17.75,3.91.14,8.11.35,11.85-.92l.34-2.13c-1.26-2.07-15.97-1.79-18.32-4.18-2.04-2.08-1.56-14.08-2.1-17.62-2.58-.54-2.02,1.71-3.34,3.02-7-3.73-4.79-6.53,1.1-9.8,14.46-8.02,43.43-8.66,57.81-.38,5.77,3.32,8.24,7.99.43,10.19l-.65-3.01-1.78-.02c-1.14.92-.13,15.25-2.16,17.56-2.08,2.37-12.82,2.06-15.69,3.77-2.38,1.42-.91,2.6,1.15,2.86,13.87,1.72,46.71-3.51,55.3-15.74.51-.73,2.78-5.24,2.78-5.72v-33.95c0-.84-2.25-2.29-3.68-.63Z"/>
  <path class="cls-3" d="M80.32,72.34c1.42,1.17,14.34,8.73,15.37,8.69l16.12-9.76.68-1.81-15.42-41.38c-1.8-1.33-2.42.06-3.21,1.66l-15.27,40.33c.04,1.16.97,1.64,1.74,2.27Z"/>
  <path class="cls-7" d="M93.23,148c-3.71-.2-12.35-2.37-15.18-1.86-.69.13-1.24.23-1.45,1.01,0,1.73-.86,4.6.95,5.56,1,.53,6.87,1.22,8.41,1.32,4.58.31,26.7.27,29.52-2.11,1.16-.98.43-3.69.6-5.16-7.64.31-15.17,1.65-22.85,1.24Z"/>
  <path class="cls-8" d="M80.75,80.99l10.99,33.03c.2.16,1.15-.69,1.21-.91v-25.46c0-.36-.73-1.21-1.07-1.54-.5-.49-9.57-5.84-10.22-6.02-1.02-.29-.91.09-.91.9Z"/>
  <path class="cls-2" d="M109.41,79.79c-3.32,1.49-6.75,5.13-10.37,6.34v27.28c1.08-.24,1.3-1.41,1.69-2.26,4.24-9.43,6.75-21.57,10.5-31.38-.05-.73-1.35-.19-1.81.02Z"/>
  <path class="cls-1" d="M57.95,70.96c1.4-2.22,1.18-4.67,2.61-7.09.75-1.27,3.89-3.77,3.73-4.64-1.21-1.73-3.27-2.97-4.48-4.67-1.58-2.22-2.03-5.37-3.99-7.24-.22,5.52-2.74,8.98-6.09,13.02,4.24,2.53,6.14,6.38,8.22,10.62Z"/>
  <path class="cls-4" d="M135.86,82.48c1.94-4.13,4.26-7.5,8.21-9.99-3.94-3.13-5.5-8.12-5.47-13.03-1.59-.29-.94.22-1.27.86-2.11,4.14-3.15,7.36-7.22,10.35,1.37,1.4,2.75,3.14,3.55,4.93,1.11,2.49.92,4.73,2.21,6.88Z"/>
  <path class="cls-6" d="M123.09,107.35c1.06.15,1.21-.76,1.55-1.47.8-1.65,3.96-10.2,3.93-11.57-.03-1.19-3.01-9.88-4.57-8.78-.89,3.18-4.78,6.07-4.92,9.4-.06,1.5,3.23,12.23,4,12.42Z"/>
  <path class="cls-5" d="M70.9,106.3c.43-.88,2.44-10.34,2.38-11.3-.09-1.36-3.84-8.54-4.97-8.26-.73.18-4,7.67-4,8.79l4.91,11.82c1.02.19,1.27-.23,1.67-1.05Z"/>
  <path class="cls-10" d="M29.93,96.47c4.04-.37,2.86-8.7-.47-8.43-4.08.34-3.61,8.79.47,8.43Z"/>
  <path class="cls-11" d="M164.07,83c1.38-2,2.08-6.22-.51-7.49-4.82-2.36-6.28,9.28.51,7.49Z"/>
</svg>